<svg xmlns="http://www.w3.org/2000/svg" viewBox="0 0 24 24"><path d="M12 23a2.19 2.19 0 0 0 2.2-2.2H9.8A2.19 2.19 0 0 0 12 23Zm6.58-11.41a7 7 0 0 0-1.56-4h.44a3.32 3.32 0 0 0 0-6.64 6.56 6.56 0 0 0-4.12 2.26h-2.68A6.56 6.56 0 0 0 6.54 1a3.32 3.32 0 0 0 0 6.64H7a7 7 0 0 0-1.56 4v2.75L3.23 17.2v2.5h17.54v-2.5l-2.19-2.84Zm-12-6.14A1.18 1.18 0 0 1 5.37 4.3a1.18 1.18 0 0 1 1.21-1.14C7.82 3.16 10 5.45 10 5.45Zm10.91-2.29A1.18 1.18 0 0 1 18.7 4.3a1.18 1.18 0 0 1-1.21 1.15H14s2.26-2.29 3.49-2.29Z"/></svg>