<svg xmlns="http://www.w3.org/2000/svg" viewBox="0 0 24 24"><path d="M17.22 11.2c.19-.27.38-.53.55-.81a6.47 6.47 0 0 0 .72-1.47 4 4 0 0 0 .17-.59 3.25 3.25 0 0 0 .08-.43v-.15a5.07 5.07 0 0 0 .05-.56v-.85A6.75 6.75 0 0 0 18 3.59c-.1-.17-.21-.34-.32-.51a5.07 5.07 0 0 0-.35-.46l-.1-.11-.3-.33a6 6 0 0 0-.46-.42c-.14-.11-.28-.22-.43-.32a6.53 6.53 0 0 0-.56-.35c-.2-.09-.37-.18-.48-.25h-.08a6.55 6.55 0 0 0-5.56.08 6.52 6.52 0 0 0-.68.38l-.09.06c-.18.12-.34.25-.51.38l-.16.14-.4.4-.16.15c-.17.2-.33.4-.48.61a1.59 1.59 0 0 0 .37 2.22l1 .67a1.59 1.59 0 0 0 2.21-.43 2.08 2.08 0 0 1 .27-.32l.12-.1.15-.14.18-.11.14-.07a1.45 1.45 0 0 1 .22-.09 2.18 2.18 0 0 1 .76-.14h.54l.25.08h.13a2.16 2.16 0 0 1 .36.2 1.83 1.83 0 0 1 .43.4l.08.09a2.68 2.68 0 0 1 .28.49 2.24 2.24 0 0 1 .12 1.4 2 2 0 0 1-.13.39 1.82 1.82 0 0 1-.2.36l-2.11 3-1.91 2.76-3 4.28-1.7 2.63a1.59 1.59 0 0 0-.21 1.32s0 0 0 .06a1.77 1.77 0 0 0 .21.41v.05a1.66 1.66 0 0 0 .35.35l1 .67A1.57 1.57 0 0 0 9 23.08l.92-1.33.84-1.22 1.34-1.92.44-.64 2.16-3.12 1-1.43 1.18-1.71ZM11 3.82 9.85 1.76a5.59 5.59 0 0 1 3.52-.42l-.77 2.25a3.22 3.22 0 0 0-1.6.23Zm4.14 1.57 2-1.28a5.56 5.56 0 0 1 .7 2.29v.35l-2.39.4a3.25 3.25 0 0 0-.28-1.76Zm-3.85 12.66-1.78 2.58-3 .23 1.9-2.75 3-.1Zm.08-4.28 1.87-2.69 3-.08-.12.16-1.63 2.36Z"/></svg>