<svg xmlns="http://www.w3.org/2000/svg" viewBox="0 0 24 24"><path d="m21.68 16.35-2.16-1.26 1.61-.44a.45.45 0 0 0 .31-.54l-.34-1.23a.44.44 0 0 0-.54-.31l-3.67 1L14.16 12l2.76-1.6 3.63 1a.44.44 0 0 0 .54-.31l.33-1.24a.44.44 0 0 0-.31-.54l-1.55-.41 2.12-1.23a.44.44 0 0 0 .17-.6L21.21 6a.44.44 0 0 0-.6-.16L18.49 7l.41-1.55a.44.44 0 0 0-.31-.53l-1.24-.32a.42.42 0 0 0-.53.3l-1 3.64-2.79 1.61V7l2.67-2.67a.44.44 0 0 0 0-.62l-.9-.91a.44.44 0 0 0-.62 0l-1.12 1.1V1.44a.44.44 0 0 0-.44-.44h-1.28a.44.44 0 0 0-.44.44v2.43L9.78 2.75a.44.44 0 0 0-.62 0l-.9.91a.44.44 0 0 0 0 .62l2.64 2.64v3.2L8.11 8.51l-1-3.57a.43.43 0 0 0-.53-.31L5.35 5a.44.44 0 0 0-.3.54L5.45 7 3.39 5.79a.43.43 0 0 0-.6.16l-.64 1.1a.44.44 0 0 0 .17.6l2.17 1.26-1.63.45a.44.44 0 0 0-.31.53l.34 1.24a.45.45 0 0 0 .54.31l3.68-1L9.84 12l-2.77 1.6-3.63-1a.44.44 0 0 0-.54.31l-.33 1.24a.44.44 0 0 0 .31.53l1.55.42-2.11 1.25a.44.44 0 0 0-.17.6l.64 1.1a.44.44 0 0 0 .6.16L5.51 17l-.42 1.55a.44.44 0 0 0 .31.54l1.24.33a.43.43 0 0 0 .53-.31l1-3.63 2.75-1.59v3.21l-2.66 2.63a.44.44 0 0 0 0 .62l.9.9a.44.44 0 0 0 .62 0l1.12-1.12v2.43a.44.44 0 0 0 .44.44h1.28a.44.44 0 0 0 .44-.44V20.1l1.15 1.15a.44.44 0 0 0 .62 0l.9-.9a.44.44 0 0 0 0-.62l-2.67-2.68v-3.2l2.82 1.63 1 3.59a.44.44 0 0 0 .53.31l1.23-.38a.44.44 0 0 0 .3-.54l-.4-1.46 2.07 1.19a.43.43 0 0 0 .6-.16l.64-1.1a.44.44 0 0 0-.17-.58Z"/></svg>